<?xml version="1.0" encoding="UTF-8" standalone="no"?>
<svg
   width="1200pt"
   height="1200pt"
   version="1.1"
   viewBox="0 0 1200 1200"
   id="svg4"
   sodipodi:docname="rouge.svg"
   inkscape:version="1.2.1 (9c6d41e410, 2022-07-14, custom)"
   xmlns:inkscape="http://www.inkscape.org/namespaces/inkscape"
   xmlns:sodipodi="http://sodipodi.sourceforge.net/DTD/sodipodi-0.dtd"
   xmlns:xlink="http://www.w3.org/1999/xlink"
   xmlns="http://www.w3.org/2000/svg"
   xmlns:svg="http://www.w3.org/2000/svg">
  <defs
     id="defs8">
    <linearGradient
       inkscape:collect="always"
       id="linearGradient298">
      <stop
         style="stop-color:#bf0000;stop-opacity:1;"
         offset="0"
         id="stop294" />
      <stop
         style="stop-color:#401010;stop-opacity:1;"
         offset="1"
         id="stop296" />
    </linearGradient>
    <linearGradient
       inkscape:collect="always"
       xlink:href="#linearGradient298"
       id="linearGradient300"
       x1="787.56812"
       y1="58.679501"
       x2="150.87926"
       y2="880.96875"
       gradientUnits="userSpaceOnUse" />
  </defs>
  <sodipodi:namedview
     id="namedview6"
     pagecolor="#ffffff"
     bordercolor="#999999"
     borderopacity="1"
     inkscape:showpageshadow="0"
     inkscape:pageopacity="0"
     inkscape:pagecheckerboard="0"
     inkscape:deskcolor="#d1d1d1"
     inkscape:document-units="pt"
     showgrid="false"
     inkscape:zoom="0.548125"
     inkscape:cx="800"
     inkscape:cy="800.9122"
     inkscape:window-width="1920"
     inkscape:window-height="1019"
     inkscape:window-x="0"
     inkscape:window-y="0"
     inkscape:window-maximized="1"
     inkscape:current-layer="svg4">
    <inkscape:grid
       type="xygrid"
       id="grid232" />
  </sodipodi:namedview>
  <path
     d="m 358.1627,1060.854 -4.043,6.75 0.16406,1.9688 3.5742,-5.9688 z"
     id="path226" />
  <path
     d="m 447.6557,1029.792 -5.1445,7.5117 -1.4219,3.8477 1.0195,1.7852 2.6328,-3.8398 z"
     id="path222" />
  <path
     d="m 289.5257,963.26199 1.0234,2.4219 0.97266,-2.3125 z"
     id="path218" />
  <path
     d="m 605.0457,820.70999 -43.391,63.402 41.238,-60.664 z"
     id="path212" />
  <path
     d="m 462.1857,861.95199 -5.7422,7.6367 -2.0703,3.3047 -2.0664,3.3008 5.7461,-7.6367 c 1.3789,-2.2031 2.7578,-4.4023 4.1367,-6.6055 z"
     id="path210" />
  <path
     d="m 611.0157,825.86999 -8.9375,13.035 -0.75391,1.5742 8.7617,-12.777 z"
     id="path208" />
  <path
     d="m 777.2657,733.42899 -1.1406,2.4336 -3.5,4.5469 0.58594,-1.6055 h -0.004 c 1.3516,-1.8008 2.7031,-3.5898 4.0547,-5.375 z"
     id="path206" />
  <path
     d="m 783.5391,712.10099 c -4.7969,6.1562 -9.5469,12.348 -14.246,18.574 l -0.59766,1.2422 c 4.4883,-5.9648 9.168,-12.074 14.035,-18.336 l 0.8125,-1.4805 z"
     id="path204" />
  <path
     d="m 172.6091,691.52299 -4.3633,11.328 -2.2344,9.6172 1.75,-0.44141 5.7422,-14.906 z"
     id="path202" />
  <path
     d="m 909.3791,663.51099 -2.8828,1.8516 -2.1523,2.1211 0.86719,-1.2891 1.0195,-1.0156 0.44141,-0.23828 z"
     id="path200" />
  <path
     d="m 808.3051,565.51899 -2.4922,2.1992 -3.0664,3.5664 -3.0703,3.5664 1.2656,-5.3125 z"
     id="path196" />
  <path
     d="m 585.5651,559.26509 -8.4805,12.641 4.6055,-5.668 1.9375,-3.4844 z"
     id="path194" />
  <path
     d="m 442.6751,558.269 -4.1406,7.0859 3.1289,-0.70312 2.0234,-2.9766 z"
     id="path192" />
  <path
     d="m 859.9451,506.078 c -14.5,15.512 -22.57,25.129 -24.207,28.852 l 21.246,-22 3.2734,-4.0312 -0.30859,-2.8203 z"
     id="path190" />
  <path
     d="m 1035.6151,499.746 c -0.8672,1.0898 -1.7109,2.1484 -2.5312,3.1836 h -0 l -2.6367,1.1992 c 1.6914,-1.4375 3.4141,-2.8984 5.168,-4.3828 z"
     id="path188" />
  <path
     d="m 877.7851,476.199 c -1.3828,2.2031 -2.7656,4.4062 -4.1484,6.6094 l -3.2578,3.4062 -3.2617,3.4023 1.2969,-3.6914 1.3086,-1.6641 h -0.008 c 2.0742,-2.2812 4.1445,-4.5508 6.2109,-6.8008 h -0.004 c 0.61719,-0.42188 1.2383,-0.83984 1.8594,-1.2617 z"
     id="path186" />
  <path
     d="m 720.1251,357.249 -2.8633,8.6367 -3.0781,0.70312 c 1.9688,-3.1211 3.9492,-6.2344 5.9375,-9.3398 z"
     id="path184" />
  <path
     d="m 1025.9251,336.28 -3.8438,3.8789 -0.8555,1.2461 2.7266,-2.7539 0.9844,-1.1836 z"
     id="path182" />
  <path
     d="m 559.5351,295.905 -8.7109,8.6562 -3.0195,3.9375 6.7812,-6.7383 2.4727,-2.9297 z"
     id="path180" />
  <path
     d="m 807.7451,253.569 c -2.168,2.2266 -4.0625,4.1953 -5.6836,5.8984 l -1.2539,1.7148 c 1.75,-1.8516 3.5078,-3.6875 5.2734,-5.5117 l 1.668,-2.1016 z"
     id="path178" />
  <path
     d="m 607.2451,158.655 -0.90234,0.93359 -39.285,24.836 -2.2383,2.7812 -0.66406,4.3359 -2.25,2.5742 c -0.31641,0.22656 -0.63281,0.45312 -0.94531,0.67578 -5.0898,3.1094 -8.0078,5.0977 -8.7461,5.9648 l -0.21484,0.51172 -0.004,0.004 c -3.2891,2.3945 -6.5586,4.8047 -9.8164,7.2266 -0.33203,-0.0469 -0.67969,-0.0937 -1.0469,-0.13672 l 2.5469,-1.6094 c 1.7305,-1.7812 3,-3.9805 3.8047,-6.5898 0.57422,-1.1523 3.6758,-3.3789 9.3047,-6.6719 1.1875,-2.2695 2.7266,-4.2227 4.6211,-5.8633 z"
     id="path176" />
  <path
     d="m 575.7841,169.128 -3.1992,1.918 -3.2734,2.0664 -2.25,1.7422 5.6328,-3.5586 z"
     id="path174" />
  <path
     id="path172"
     style="fill:url(#linearGradient300);fill-opacity:1"
     d="m 805.3841,35.738 -5.9805,4.9258 -0.0547,5.4922 -1.2734,4.2344 -11.941,9.8711 1.4336,-1.582 5.9766,-4.9258 2.6016,-2.8086 -0.93359,-10.918 -2.9922,2.4648 -4.0938,-2.4062 -5.543,-1.1367 -6.7969,-2.9023 -2.9883,2.4609 -1.7266,3.7695 -2.5508,1.5117 -5.9805,4.9258 -1.2109,4.2539 -2.9922,2.4609 -2.707,-0.20703 -5.9805,4.9258 3.8828,1.6914 8.707,-7.0117 1.9609,-1.6133 3.5312,-0.29688 0.44531,1.457 -1.4883,3.5156 -2.5586,-1.6406 -1.6875,-0.33203 0.0391,0.20703 -8.9688,7.3867 1.8164,7.4453 -1.1484,4.2383 7.1719,3.9414 4.8086,0.14844 5.9766,-4.9219 1.4023,-4.1328 2.9922,-2.4609 4.8789,3.043 -2.1992,3.2773 4.5,5.3594 5.9805,-4.9258 5.0703,0.53906 1.3711,-4.0664 2.3086,-3.1289 1.7109,-3.4727 -2.9062,2.2344 0.57812,-3.3984 -0.33984,-4.2188 2.8984,-0.53516 5.9766,-4.9258 -0.78516,-2.793 2.9883,-2.4609 3.0703,-1.8281 3.9805,-0.08203 5.9805,-4.9258 -6.0625,-4.6484 z m -75.1084,55.52399 -0.99219,0.32812 c -6.668,3.4961 -13.281,7.0273 -19.848,10.594 l -13.598,-0.49219 -3.6211,0.89062 -29.469,18.629 -3.0781,2.2539 -1.7695,3.4961 -16.348,10.367 -3.5234,1.2227 -3.9258,-0.14453 -0.6875,-1.5781 1.8672,-3.3281 13.098,-8.2773 -3.1562,-3.0859 -3.5195,-0.78906 -22.727,14.18 -3.3711,1.7344 -3.9258,-0.14453 c -2.0938,1.7148 -4.3711,2.7305 -6.8398,3.043 l -3.2734,2.0703 c -0.89844,2.2812 -2.4492,4.1602 -4.6523,5.625 l -9.8203,6.207 -2.4375,2.793 c -2.5039,0.57031 -4.6367,1.8359 -6.3867,3.7891 l -2.418,2.8789 0.26562,0.84766 c 5.668,-3.4141 8.7344,-5.5195 9.1953,-6.3164 l 1.7617,0.55078 -6.5469,4.1406 c -0.75781,1.0039 -2.5898,4.4414 -5.4883,10.316 l -1.5117,-0.004 0.75781,-2.6641 -36.016,22.766 c 2.2734,0.0391 3.2578,0.46484 2.9531,1.2773 l -19.641,12.418 -3.5391,1.2695 -0.34375,1.1836 -3.2734,2.0703 -3.5508,1.1992 -4.0156,0.0274 -22.918,14.488 4.5039,2.3711 0.89062,0.16016 c -5.5664,2.0703 -10.891,4.3398 -15.98,6.8125 l -32.52,56.289 c -8.5664,7.9688 -16.973,16.035 -25.227,24.199 l -0.0742,-0.22656 -0.44922,0.74609 c -11.688,11.578 -23.059,23.355 -34.117,35.336 l -2.5859,-1.2344 -6.1406,8.4336 -55.039,21.18 -26.207,45.367 -0.35156,26.305 -10.832,2.2305 -32.758,56.711 c -1.543,5.6719 -2.7461,11.109 -3.6094,16.312 l -0.004,0.004 c -5.7734,3.7109 -14.824,9.3711 -27.16,16.98 l -5.6914,7.4844 -13.75,35.68 -0.80078,9.3047 1.5,4.2148 -24.926,43.148 6.6055,-1.6094 -10.906,28.297 2.9336,9.6328 -17.188,44.602 c -2.1133,0.47656 -4.2539,1.7266 -6.4219,3.7578 l -20.621,53.52 4.1797,0.58594 7.8672,-5.9453 13.75,-35.684 -0.42188,-9.5742 6.4727,-5.2891 13.746,-35.68 v 0.004 l 2.5078,-6.5117 4.3242,-6.3242 4.8008,-3.5195 3.4336,-8.9219 2.0781,5.8281 1.2188,9.5977 -3.4375,8.9219 -3.207,1.5586 -2.9102,-7.7227 -10.312,26.758 -3.3438,0.83984 -25.191,65.379 -0.78125,10.059 4.9141,9.1484 2.0117,10.035 c 1.7188,-4.4844 4.0117,-10.434 6.875,-17.852 l 2.5195,-6.1758 h 0.004 c -2.9453,9.1484 -5.8359,18.363 -8.6758,27.641 l -0.72266,-3.6094 -0.004,0.004 c -1.7148,4.4727 -2.8594,7.4844 -3.4375,9.0352 l 1.8398,2.2305 c -11.422,37.883 -21.938,76.82 -31.555,116.82 l 70.641,-107.54 136.66,-221.2 2.8359,-4.0469 2.1914,1.7969 12.98,-2.9961 32.758,-56.707 13.242,-5.4883 15.816,-20.215 -1.0352,-13.543 13.102,-22.684 3.4961,-12.195 1.0781,-1.5352 6.8555,-8.5117 c 0.0703,-0.53516 0.14062,-1.0586 0.21094,-1.5703 l 26.93,-38.418 35.637,-34.113 10.062,-1.6367 c 5.2227,-2.6953 10.215,-6.4219 14.969,-11.188 l 1.9297,-9.5469 c 22.25401,-21.758 34.199,-36.027 35.84001,-42.801 h -0.004 l -5.7148,2.6914 -12.996,12.426 1.3555,-4.2734 6.7812,-6.7383 c 1.3633,-6.0352 2.3477,-12.332 2.9492,-18.887 1.1719,-1.3516 2.3555,-2.7148 3.5547,-4.0898 l 0.39453,-0.42969 1.6641,4.0078 54.246,-53.91 -7.5586,-0.21484 3.957,-5.457 27.125,-26.953 7.1484,-4.6797 2.2773,-4.6875 7.9844,-4.9297 9.8984,-2.375 33.902,-33.691 -13.73,-4.9102 34.918,-37.918 c 7.4336,-8.7461 13.656,-16.719 18.66,-23.926 1.8047,-2.468805 2.375,-5.933605 1.7109,-10.395005 z m 352.677,163.222 c -50.578,26.625 -96.051,52.672 -136.42,78.137 l 37.137,-46.922 c -3.6289,-0.94922 -7.2461,-1.4258 -10.852,-1.4258 -3.0742,0 -6.1406,0.34766 -9.1953,1.0352 l -7.7188,4 c -3.6719,4.8203 -7.8633,9.3086 -12.574,13.465 l -26.234,10.984 -6.8789,6.1992 -59.328,74.961 c -0.19141,1.5898 -0.38281,3.1797 -0.56641,4.7734 h -0.004 c -4.3242,3.3828 -8.5469,6.7539 -12.676,10.117 l 0.4375,-6.0664 -4.3633,0.32031 -20.059,25.344 h -0.004 c -4.6523,3.832 -9.2617,7.6719 -13.832,11.52 h -0.004 l -2.75,1.5273 -2.832,-3.8086 c -0.0859,-0.0273 -0.17969,-0.0391 -0.27734,-0.0391 -1.5195,0 -4.6562,3.0273 -9.4102,9.0859 l -43.73,18.285 -8.1641,4.4492 -35.598,44.977 -5.2656,7.7539 c -0.26172,6.4297 -1.332,12.543 -3.2148,18.348 l -4.7539,-1.1484 -7.4258,6.5508 -53.137,68.16 0.008,1.6094 c -14.25,17.188 -27.746,34.484 -40.484,51.891 -1.5938,2.3945 -3.1875,4.8086 -4.7891,7.2383 -0.20703,-0.38281 -0.375,-0.85547 -0.50391,-1.4219 l -53.395,67.465 c 3.12891,-0.11328 8.0391,-1.5 14.73401,-4.1641 -1.625,2.6602 -3.25,5.3359 -4.87891,8.0312 l -1.3438,1.1562 -22.988,30.559 -7.1367,6.082 c -6.1797,2.4883 -11.57,5.8086 -16.172,9.9609 l -4.7031,8.1992 -1.4727,9.332 -11.496,15.281 -4.1914,7.7891 -6.043,7.3086 -2.1094,9.4805 3.9375,-1.7109 c 3.8359,-5.5703 7.66411,-10.184 11.477,-13.844 v 0.004 c -0.39453,2.7812 -2.8203,7.2344 -7.2773,13.359 0.49219,5.7734 0.77344,11.441 0.85156,17.004 -0.47266,0.85938 -0.94141,1.7266 -1.4141,2.5938 l -1.6133,-2.2031 -4.8477,3.7188 -40.223,53.477 8.0469,-0.76953 -4.3789,6.8086 -31.348,41.281 -10.816,2.4219 -28.73,38.19903 16.59,3.3828 8.4727,-3.7266 6.5234,-6.8047 4.3555,-0.9648 -9.668,16.145 c -0.65625,2.4219 -0.71094,5.0273 -0.16797,7.8125 l -2.4531,0.1523 -2.4648,3.1641 -11.941,19.941 -1.6836,3.6406 0.23047,3.6797 -9.9531,16.613 -1.6484,1.8555 -0.92969,-1.207 -13.934,23.262 c 0.23438,0.1289 0.51172,0.1953 0.83594,0.1953 1.0781,0 2.6602,-0.7226 4.7422,-2.1641 l 21.301,-35.324 1.9258,-3.2188 2.2031,-0.914 2,-2.1797 1.9883,-3.3242 0.46094,3.5625 -0.74219,3.7031 -1.9883,3.3242 -1.3164,0.4297 -0.28516,-4.0078 -7.9609,13.293 -0.16406,-1.9492 -16.324,27.258 -0.49609,4.0625 0.92969,3.8359 -0.0508,4.2734 4.6836,-7.8203 2.2109,-3.1055 3.8594,-1.4648 -10.445,17.445 -0.62109,0.2851 c 0.12891,-0.5156 0.21875,-1.0273 0.26953,-1.5391 l 0.043,-3.8008 -1.2852,2.1484 -0.79297,4 1.7656,-0.8086 c -0.42969,1.6875 -1.2969,3.3828 -2.5977,5.0859 l 1.6992,0.3047 6.7891,-2.582 c -10.973,28.676 -14.445,44.758 -10.41,48.25 l 1.2031,-0.9531 c 22.836,-21.637 54.152,-58.398 93.949,-110.29 l 19.492,-25.973 -0.50391,1.6016 7.3789,-10.766 7.9102,-10.543 5.2344,-3.5703 -23.438,34.184 v 0 l -8.7617,12.777 22.918,-15.652 2.582,-2.4883 37.23,-54.31204 c 1.2109,-0.97656 2.5781,-4.3203 4.0977,-10.035 l 19.711,-28.75 c -0.40625,-0.89844 3.2109,-3.7344 10.848,-8.5078 l -3.8594,9.9531 -15.012,22.406 c 0.43359,0.23438 0.98438,0.35156 1.6484,0.35156 1.7148,0 4.1992,-0.76953 7.4609,-2.3086 l 30.449,-43.879 c 1.8867,-1.3594 3.7891,-2.6836 5.7148,-3.9727 l 9.3633,-11.582 c 3.5234,-4.2891 5.5508,-8.5859 6.0859,-12.887 l 23.27,-34.586 c -0.27344,-1.2461 1.332,-4.5469 4.8125,-9.8984 l -2.2148,1.7148 -8.7305,12.746 -1.2188,3.0703 -2.8438,2.1289 -0.35547,-0.50391 8.4688,-12.832 5.0039,-17.055 2.082,-2.9609 -1.5898,6.7695 1.9609,-2.6836 41.609,-60.699 -5.1016,3.6406 -0.0469,-0.82812 9.957,-14.523 39.691,-23.855 6.8594,-5.6758 c 14.539,-20.496 29.293,-40.672 44.27,-60.531 l 7.2695,-25.223 c 0.0273,0.30078 0.26172,0.44922 0.70703,0.44922 1.3789,0 4.7617,-1.4297 10.145,-4.293 17.113,-22.121 38.914,-48.398 65.398,-78.824 4.8984,-5.707 6.8867,-11.07 5.9648,-16.094 14.449,-16.348 33.602,-36.93 57.449,-61.75 0.0391,0 0.0742,-0.004 0.10938,-0.004 1.4805,0 1.7852,1.8789 0.91016,5.6328 19.449,-20.25 43.875,-44.695 73.281,-73.332 l 1.8125,-3.6016 h -0.008 c -5.6914,1.707 -11.355,3.5078 -16.988,5.3984 l -46.902,46.691 c -4.8984,4.2812 -7.8828,9.4453 -8.9531,15.484 l -7.4102,0.86719 -26.91,27.867 -2.9414,3.6211 c -14.863,16.109 -25.375,27.684 -31.535,34.727 l -3.3867,-2.4609 -5.4648,4.9727 -6.1836,7.0664 -6.1406,7.0898 1.4609,-6.0312 h -0.004 c 6.7305,-8.1836 13.418,-16.211 20.059,-24.074 h 0.004 l -1.4453,6.1445 c 12.504,-14.023 25.219,-27.895 38.141,-41.609 l 0.40234,3.6953 c 18.324,-19.602 46.918,-48.621 85.781,-87.055 3.7852,-5.6406 5.4453,-10.66 4.9844,-15.055 h -0.004 l 12.855,-12.977 1.043,-3.8711 c -0.26172,-0.17578 3.2852,-3.9023 10.641,-11.184 l 3.625,-1.3594 3.4531,0.0977 -0.60938,4.0898 -8.1797,8.2539 3.7656,3 3.5117,-0.39844 13.633,-13.758 3.1758,-2.0547 c 2.6094,-0.62109 4.9453,-1.6406 7.0078,-3.0508 l 2.7266,-2.75 0.6758,-3.9062 c 2.9805,-2.7148 7.2695,-7.3398 12.871,-13.875 l 1.5664,-3.5234 -1.8906,0.69141 c -1.9766,1.8633 -3.6367,3.668 -4.9844,5.4141 l -0.6055,-1.168 2.7266,-2.75 c 1.0938,-2.3164 1.6875,-4.9648 1.7773,-7.9492 l 1.4922,-3.5781 -0.016,3.793 21.812,-22.008 0.9375,-1.9023 -2.5625,-0.23828 17.375,-17.531 c 2.2812,-1.1406 4.6836,-2.1445 7.2109,-3.0039 l 13.633,-13.758 c 0.3047,-0.19531 -1.9141,-0.87891 -6.6602,-2.0508 l -3.5898,0.99219 -2.7109,2.7266 c -2.7578,0.44922 -5.5508,0.83984 -8.3867,1.1836 l -3.6211,1.4297 -19.086,19.258 c -0.3789,2.7461 -0.9844,5.3477 -1.8125,7.8086 -1.8477,1.8125 -3.6367,3.668 -5.3633,5.5586 l -0.668,4.0547 -29.99199,30.262 0.67969,-1.1211 24.539,-24.762 1.2539,-3.5234 -0.7109,-4.8711 5.4531,-5.5 1.8789,-3.2539 52.383,-56.406 z m -116.5076,350.148 -0.70703,1.4102 c -1.9141,1.707 -3.8242,3.4219 -5.7344,5.1406 l -2.8633,2.582 1.9023,-2.8164 h -0.008 c 2.3086,-1.9727 4.7773,-4.0781 7.4062,-6.3164 z m -89.3194,-424.292 c -0.95312,0 -1.7344,0.14844 -2.3477,0.45312 -2.0156,0.91797 -3.9688,2.3789 -5.8594,4.3711 l -14.625,4.1836 c -9.5859,8.6523 -19.094,17.414 -28.52,26.285 -1.4414,2.0273 -2.332,4.3555 -2.6719,6.9883 l -1.9062,3.1758 c -1.8672,1.793 -3.7227,3.5898 -5.5664,5.3867 -1.8203,1.8164 -2.8906,4.0312 -3.2109,6.6406 -8.0703,7.9336 -15.875,16.004 -23.414,24.215 l 1.2617,-1.8477 h -0.004 c 4.8945,-5.3125 10.375,-11.078 16.43,-17.301 1.1406,-1.9805 1.3281,-4.5039 0.55859,-7.5664 h -0.004 l 1.1758,-1.7227 9.4688,-9.6641 1.0625,-3.7461 -0.85156,-0.76562 1.3398,-1.9648 16.484,-19.762 -19.004,15.363 c -12.621,8.4258 -24.078,16.203 -34.371,23.324 l -11.855,-0.63672 -6.5508,6.1875 c -5.4727,3.3867 -12.199,5.4805 -20.18,6.2812 l -8.5039,4.7773 -31.004,42.227 h -0.004 c -4.082,3.3672 -8.2852,6.8711 -12.602,10.516 l -2.0312,-4.0391 -11.523,15.605 h -0.004 c -3.043,2.6211 -6.1367,5.3047 -9.2812,8.0508 h -0.004 l -5.3594,0.83203 -3.4688,-2.875 -8.1406,5.1523 -6.3359,1.2422 -1.0078,-2.0352 -10.219,-0.42188 -5.9648,5.832 -9.5781,1.8789 c -0.0156,-0.0156 -0.0352,-0.0234 -0.0625,-0.0234 -0.73828,0 -5.8828,6.5078 -15.434,19.523 l -6.8359,0.90234 -8.3242,4.4727 c -4.3984,4.7695 -7.375,10.285 -8.9258,16.555 -5.1797,3.9609 -9.1172,8.9102 -11.809,14.84 l -7.5391,5.3203 -3.6055,9.1328 5.5781,-2.4844 5.0586,-7.7227 4.4727,1.7891 -6.8359,6.6836 c 0.12109,3.0938 0.0898,6.0742 -0.0898,8.9414 l -4.0898,5.5391 -3.5352,2.6055 -2.6523,3.0547 -2.6484,3.0547 8.625,-8.4297 -0.85938,1.1641 -40.574,39.652 3.6211,3.1055 -2.8555,5.3203 -16.391,16.016 -4.5547,1.4414 -14.816,-0.0273 -11.363,2.875 -10.734,15.82 2.0508,8.0312 -6.2539,6.1094 -1.6016,0.38672 -2.3711,3.4961 -3.5547,3.4766 0.88672,0.45703 -11.059,16.305 0.23047,10.707 -10.734,15.824 -5.4141,-0.28906 -16.098,23.734 8.0859,3.4648 5.8828,-7.4648 20.836,-30.184 0.0352,0.12891 0.76562,-1.3086 6.3906,-5.6445 6.5586,-4.5898 2.7578,5.8516 -1.6641,5.8867 c -0.54297,0.90234 -1.082,1.8125 -1.625,2.7227 l -4.8086,-5.3477 -5.3672,7.9102 -4.0195,0.90234 -19.445,28.668 0.49219,10.922 3.4766,10.062 c -3.4453,6.5352 -6.9062,13.211 -10.371,20.031 l -1.5664,-1.3711 c 2.6484,-5.7773 5.375,-11.531 8.1836,-17.262 l -15.91,-4.4922 -4.7539,7.582 -12.453,25.836 -9.4883,5.0312 -6.332,7.1055 1.3242,10.148 -4.1484,8.6133 -1.4727,9.5586 -5.2109,7.6523 2.5078,7.6406 4.1523,-8.6094 5.1016,-5.0156 -4.1484,8.6133 4.3281,11.449 0.71875,7.5547 -5.1953,-0.90234 -20.754,43.059 6.8672,0.86328 -14.914,30.949 -5.8945,7.4688 -8.7227,5.7578 -12.449,25.836 4.0234,0.88281 11.613,0.043 c -23.75,64.484 -32.352,98.609 -25.809,102.38 l 0.73047,-0.66797 c 13.484,-14.828 31.086,-37.473 52.805,-67.938 30.918,-45.582 58.504,-85.902 82.758,-120.96 l 7.0859,-1.7734 c 0.91797,-1.3984 2.5469,-4.4531 4.8867,-9.1641 v 0.004 l 24.699,-36.82 c 1.1602,-3.0547 2.207,-6.1602 3.1406,-9.3242 8.3828,-11.898 16.195,-22.902 23.441,-33.004 l 7.0352,-1.0742 1.8672,9.5039 -10.652,15.875 3.5156,8.1211 11.66,0.26562 21.301,-31.75 6.9766,-6.3398 c 5.9219,-3.0273 11.098,-6.7227 15.535,-11.094 l 1.1992,-9.4531 c 2.332,-5.8594 5.4727,-11.34 9.4297,-16.441 l 2.9688,-9.0938 6.4883,-6.6133 1.6367,-9.6406 -3.5508,1.4883 -5.3242,7.9375 -6.0977,4.7422 5.3242,-7.9414 1.4531,-9.7266 -1.9453,-11.293 2.5156,-2.5938 4.2305,0.43359 31.953,-47.633 c -1.3438,-2.2031 -2.3594,-4.6133 -3.0508,-7.2305 l 15.977,-23.816 6.8242,-6.543 1.1055,-5.2734 c 4.0312,-4.7852 9.4375,-8.3984 16.215,-10.844 l 9.3398,-13.922 c 3.6953,-3.4766 7.4062,-7.2734 11.129,-11.391 l 0.21875,-5.5234 0.61719,-0.91797 -0.57422,-0.10156 0.13281,-3.4219 11.359,-15.383 3.8711,-8.1719 6.2617,-7.0664 1.5273,-7.1094 7.7266,-10.281 13.664,-13.352 3.1094,3.4531 34.188,-33.406 -10.82,-1.5273 -7.2227,6.1328 -12.973,12.68 c 0.78906,-1.2305 1.5781,-2.4531 2.3711,-3.6797 h -0.004 l 8.5977,-11.441 4.7773,-4.668 0.0625,-1.7734 16.664,-22.184 h 0.004 c -0.32812,2.1328 -0.96875,4.1602 -1.9219,6.0938 -2.9688,4.1289 -5.8906,8.2969 -8.7617,12.508 l 4.1641,1.3633 3.4805,-0.60547 17.684,-23.891 c 1.7578,-1.6641 3.8086,-2.9102 6.1523,-3.7461 1.3438,-2.2852 3.0977,-3.9219 5.2539,-4.9102 l 2.3359,-2.875 c 0.39062,-2.2695 1.2188,-4.4531 2.4766,-6.543 l 14.176,-16.688 c 0.73828,-2.3281 1.9453,-4.4258 3.6172,-6.2891 h -0.004 l -1.7734,0.64453 c -4.4727,4.6172 -6.7969,7.375 -6.9688,8.2773 l -2.1562,0.26172 c 1.6836,-1.8867 3.375,-3.7539 5.0742,-5.6055 0.875,-0.88281 1.9609,-4.4531 3.2617,-10.711 l 1.8516,-3.2031 -0.19922,2.7227 1.1406,0.14453 c 7.8555,-8.2891 17.793,-18.168 29.809,-29.637 l 0.76172,-1.5234 -3.6992,0.9375 2.0586,-2.2461 c 5.5859,-5.293 11.211,-10.547 16.883,-15.754 l 3.2344,-1.8555 -0.0391,-1.0781 2.8516,-2.6055 2.9727,-2.2969 c 2.8164,-0.0781 5.168,-0.99219 7.0508,-2.7461 l 14.359,-12.938 5.7695,-5.1797 c -3.0742,-1.1016 -5.5234,-1.6523 -7.3477,-1.6523 z m -588.08,778.964 c -2.2344,0 -5.1133,0.40234 -8.6328,1.2109 l -3.5117,2.3359 -6.3672,14.125 0.61719,4.2266 -3.1836,7.0586 -3.5898,2.2891 -3.4883,-2.4844 c 1.0156,-2.3672 2.0586,-4.7266 3.125,-7.0781 l -7.168,-1.0352 -4.7773,10.527 c -2.1523,1.6797 -4.25,3.3789 -6.293,5.1055 0.20703,2.6484 -0.11328,5.19531 -0.95703,7.64841 -1.207,2.3789 -2.125,4.7109 -2.7539,6.9883 l -0.0273,4.0195 c 1.4844,-2 3.0078,-3.8906 4.5703,-5.6641 l -1.5859,3.5273 1.9766,4.6523 0.10547,2.3594 -2.0742,0.5781 -6.3672,14.125 c 0.3125,1.3906 0.67578,2.7422 1.0898,4.0586 l -3.1836,7.0625 -1.9648,2.8672 -0.73438,2.7539 -4.0742,2.0859 -4.7773,10.594 3.4609,0.6172 5.4648,-0.8906 2.9258,-2.707 5.2812,-1.3086 2.3398,-3.082 4.7734,-10.59 0.85156,-3.7539 -1.7344,-4.5234 1.5938,-3.5312 -0.8125,-4.25 9.5508,-21.188 0.84766,-1.1211 -7.9609,17.656 -0.86719,3.6719 3.0664,4.8789 -1.5898,3.5312 1.5312,4.4922 c 1.4961,-1.4336 2.7031,-3.4805 3.6172,-6.1406 l 3.207,-1.9141 2.5117,0.082 4.4609,-1.8047 c 3.7891,-0.707 7.0469,-1.7383 9.7695,-3.0898 l 3.1836,-7.0625 0.91797,-3.7344 -1.4453,-3.8125 3.3203,-1.957 4.7773,-10.594 -0.85937,-4.20699 4.7773,-10.598 1.9961,0.14453 4.7773,-10.594 0.73047,-2.9883 -4.3438,1.8164 -3.1836,7.0625 -0.76172,3.3281 -2.2305,3.0156 c -0.52344,1.3828 -1.0547,2.5625 -1.5938,3.5391 l 0.125,-0.27734 -0.66016,-1.3555 -0.0937,0.21094 -1.0195,3.7227 c 0.55469,-0.5625 1.1016,-1.3242 1.6367,-2.2891 l 0.004,0.004 -1.4609,3.2383 -2.7617,1.2852 -1.6055,3.5 -1.7969,-2.9648 0.97656,-3.7148 2.2617,2.4805 1.6211,-3.2812 1.5938,-3.5312 0.64453,1.3398 7.7852,-17.562 -3.2695,-4.8555 -0.80469,-1.9102 -0.55469,1.3164 -1.5938,3.5312 -4.043,2.0078 4.207,-9.332 0.96094,0.0547 -0.16016,-0.38672 0.93359,-3.5156 c -0.39063,-0.0312 -0.80469,-0.0469 -1.25,-0.0469 z m 769.58,-494.242 -35.93,16.34 c -30.512,25.961 -54.887,47.199 -73.129,63.719 l -6.0391,8.5703 -28.973,27.125 h -0.004 c -2.2695,0.21484 -4.3984,0.89062 -6.3828,2.0195 -3.9414,3.4375 -8.5078,7.6133 -13.691,12.52 h -0.004 l -2.5234,1.4805 v 0.004 l 7.9531,-11.258 27.609,-26.75 c -1.0508,-0.16797 -2.0781,-0.25 -3.0781,-0.25 -2.8945,0 -5.5703,0.69922 -8.0273,2.0938 -11.875,10.367 -29.395,27.379 -52.562,51.031 l -8.7227,5.6719 -13.75,12.762 -49.887,61.891 -8.0664,13.98 14.609,-18.113 1.2695,-2.832 c 0.99609,-1.6133 3.4531,-3.6523 7.3633,-6.1211 h 0.004 l -14.582,18.254 -6.7227,14.371 -2.1094,2.6172 -2.4648,4.2734 1.3281,-3.6484 -1.6758,1.8711 c -14.316,18.559 -28.23,37.375 -41.742,56.453 l -19.336,27.887 7.7852,-6.9023 -1.8906,2.8281 -37.363,53.844 c -1.2227,1.7109 -1.7266,2.5664 -1.5156,2.5664 0.17188,0 0.79297,-0.53906 1.8711,-1.625 v 0.004 l -8.5508,12.855 -10.082,10.016 -23.25,35.785 -12.621,19.527 c 3.2383,-0.93359 6.043,-2.1172 8.4062,-3.5586 h 0.004 l -4.0234,6.1875 -12.621,19.527 c 3.4648,-0.99609 6.4297,-2.2852 8.8945,-3.8633 l -7,10.828 c 2.2266,-0.64062 4.2422,-1.3984 6.0547,-2.2773 h 0.004 l -2.6211,3.7695 c -1.2227,1.7148 -1.7266,2.5703 -1.5117,2.5703 0.16797,0 0.79297,-0.54297 1.8672,-1.6289 l 0.004,0.004 -8.5547,12.855 -10.082,10.016 -23.246,35.78501 -12.621,19.527 c 5.043,-1.4492 9.0273,-3.5195 11.949,-6.207 1.7617,-0.5664 6.0547,-6.332 12.875,-17.289 l 20.211,-18.95701 c 9.9453,-15.234 19.238,-29.328 27.883,-42.281 h 0.004 l -6.4414,9.9141 -12.621,19.527 c 5.043,-1.4492 9.0273,-3.5195 11.953,-6.207 1.7578,-0.57031 6.0508,-6.332 12.875,-17.289 6.7266,-6.3281 13.461,-12.648 20.207,-18.957 19.75,-30.258 36.941,-56.016 51.57,-77.273 l 2.2539,-6.0898 7.3359,-5.8633 c -0.35938,1.5469 -0.41016,2.8281 -0.15234,3.8438 2.1094,-3.0117 4.0898,-5.8359 5.9453,-8.4766 h -0.004 l 14.633,-11.707 c 11.488,-14.188 21.457,-26.227 29.906,-36.125 h -0.004 l 23.957,-19.168 c 15.902,-19.637 28.891,-35.164 38.965,-46.582 l 4.4844,-8.2852 h -0.004 c 2.7734,-2.7383 5.5898,-5.4961 8.4492,-8.2812 l -0.004,0.004 0.082,-0.0547 c 0.0469,-0.0508 0.0937,-0.10547 0.14453,-0.15625 h -0.004 c 0.68359,-0.66797 1.3672,-1.332 2.0586,-2 l 0.43359,-0.71484 h -0.004 c 9.1133,-9.9102 18.922,-20.188 29.43,-30.824 h -0.004 c 6.75,-6.2031 13.555,-12.359 20.406,-18.473 l 2.4297,-2.0703 h 0.004 c -2.9023,3.9727 -4.1992,5.9609 -3.8945,5.9609 0.17188,0 0.83984,-0.61719 2.0039,-1.8555 l 59.438,-52.051 -12.18,5.7656 c -13.688,11.711 -27.262,23.52 -40.73,35.426 l -3.8906,5.668 -3.0156,1.2109 c 1.1367,-1.1055 2.2812,-2.2188 3.4336,-3.3359 l 2.7461,-4.5078 h -0.008 c 11.602,-10.234 25.344,-22.215 41.234,-35.945 -0.75391,-0.004 0.90625,-2.8008 4.9805,-8.3867 h -0.004 c 0.4375,-0.39062 0.875,-0.78125 1.3164,-1.1719 l 2.4258,-2.0703 h 0.004 c -2.8984,3.9727 -4.1992,5.957 -3.8906,5.957 0.16797,0 0.83594,-0.61719 2,-1.8516 l 59.43802,-52.051 -12.18,5.7656 c -13.688,11.711 -27.26202,23.52 -40.73002,35.426 l -3.8906,5.668 -1.8164,0.73047 c 1.9844,-2.6367 4.3438,-5.707 7.082,-9.2148 h -0.008 c 0.14453,-0.12891 0.28906,-0.25391 0.43359,-0.37891 h -0.008 l 8.4531,-7.1719 1.6016,-1.6445 h -0.004 c 8.6172,-7.5352 18.17193,-15.836 28.65993,-24.902 -1.207,-0.004 3.7188,-7.0859 14.77,-21.25 v 0 l -26.496,22.484 c -2.0312,0.94531 -4.0625,1.8945 -6.09374,2.8438 l -2.8711,1.3438 5.16014,-4.5195 v 0 c 10.98,-9.4648 24.078,-20.641 39.285,-33.523 v 0 c -3.3359,4.1875 -6.3281,7.9727 -8.9648,11.355 l 8.8164,-7.4805 3.0547,-3.1289 1.5312,-2.8711 -0.8711,-0.89844 11.223,-9.5 -24.121,10.969 c 2.293,-3.457 6.6328,-9.2773 13.023,-17.461 h -0.01 l -26.496,22.484 c -1.1016,0.51172 -2.1992,1.0234 -3.3008,1.5391 0.1797,-0.29688 0.3828,-0.62109 0.6133,-0.97266 h -0.01 l 9.1172,-7.9844 -4.4336,2.0977 c 9.707,-8.332 20.871,-17.848 33.488,-28.539 l 0.01,0.004 c -3.3398,4.1875 -6.3281,7.9727 -8.9688,11.355 l 8.8164,-7.4805 3.0547,-3.1289 1.5312,-2.8711 -0.8711,-0.89844 11.223,-9.5 -21.27,9.6719 5.4492,-4.6133 -13.75,6.2539 1.5039,-2.8242 -0.8711,-0.89453 11.223,-9.5039 -21.844,9.9336 c 1.8164,-2.3984 3.9219,-5.1289 6.3125,-8.1914 h -0.01 l -13.527,11.48 -6.8672,3.1211 c -4.4727,3.8047 -8.8164,7.5117 -13.027,11.117 v 0 l -2.20696,1.0312 c 11.99196,-10.375 26.86296,-23.086 44.61296,-38.121 h 0.01 c -3.3398,4.1875 -6.3281,7.9727 -8.9688,11.355 l 8.8164,-7.4844 3.0547,-3.125 1.5312,-2.875 -0.8711,-0.89453 z" />
  <path
     d="m 761.1541,69.453 -2.9844,2.457 -3.3516,1.5352 c 0.56641,-1.2969 1.1367,-2.5898 1.7031,-3.8828 z"
     id="path170" />
  <path
     d="m 762.24,54.828 -1.0312,0.85156 1.2344,0.23828 z"
     id="path2" />
</svg>
